# xmcd
#
# Track frame offsets:
#	150
#	22808
#	44373
#	61407
#	83503
#	115515
#	146247
#	149865
#	170735
#	183169
#	198314
#	203672
#	219812
#	230137
#	236745
#	298945
#	300190
#	318685
#
# Disc length: 4773 seconds
# Revision: 0
# Processed by: cddbd v1.5.2PL0 Copyright (c) Steve Scherf et al.
# Submitted via: dBpowerAMP V12.0
#
DISCID=0812a312
DTITLE=Lightnin' Hopkins - Free Form Patterns
DYEAR=2014
DGENRE=Texas Blues
TTITLE0=Song 8 - Rain Falling
TTITLE1=Chat 9 - Argument Over Songs
TTITLE2=Song 9 - Cooking's Done
TTITLE3=Chat 10 - "Sweet Lil' Woman, But You Ain't Got No Hair" and Chat
TTITLE4=Song 11 - Mr Charlie
TTITLE5=Song 12 - Straw Hat (Previously Unreleased)
TTITLE6=Chat 11 - They Got 100 Songs
TTITLE7=Song 13 - Green Onions (Previously Unreleased)
TTITLE8=Chat 12 - Vietnam Song Snippet - Oh Oh Lyric
TTITLE9=Song/chat - Poppa Was A Preacher Rehearsal/chat
TTITLE10=Chat 13 - That Had The Feeling, Finishing Session
TTITLE11=Conversation 1 - Trouble in Crockett TX
TTITLE12=Conversation 2 - Whiskey on prescription
TTITLE13=Conversation 3 - Musician's hours: Tommy Hall - Stacy Sutherland
TTITLE14=Conversation 4 - "Where'd you pick up the name Lightnin'?"
TTITLE15=Conversation 5 - "You not gonna mess with Elmore (Nixon) anymore?"
TTITLE16=Conversation 6 - Centerville TX
TTITLE17=Conversation 7 - Politics
EXTD=
EXTT0=
EXTT1=
EXTT2=
EXTT3=
EXTT4=
EXTT5=
EXTT6=
EXTT7=
EXTT8=
EXTT9=
EXTT10=
EXTT11=
EXTT12=
EXTT13=
EXTT14=
EXTT15=
EXTT16=
EXTT17=
PLAYORDER=
